<svg width="12" height="13" viewBox="0 0 12 13" fill="none" xmlns="http://www.w3.org/2000/svg">
<path d="M6 3.16667V0.5H0V12.5H12V3.16667H6ZM2.4 11.1667H1.2V9.83333H2.4V11.1667ZM2.4 8.5H1.2V7.16667H2.4V8.5ZM2.4 5.83333H1.2V4.5H2.4V5.83333ZM2.4 3.16667H1.2V1.83333H2.4V3.16667ZM4.8 11.1667H3.6V9.83333H4.8V11.1667ZM4.8 8.5H3.6V7.16667H4.8V8.5ZM4.8 5.83333H3.6V4.5H4.8V5.83333ZM4.8 3.16667H3.6V1.83333H4.8V3.16667ZM10.8 11.1667H6V9.83333H7.2V8.5H6V7.16667H7.2V5.83333H6V4.5H10.8V11.1667ZM9.6 5.83333H8.4V7.16667H9.6V5.83333ZM9.6 8.5H8.4V9.83333H9.6V8.5Z" fill="#495570"/>
</svg>
