<svg width="12" height="13" viewBox="0 0 12 13" fill="none" xmlns="http://www.w3.org/2000/svg">
<path d="M5.68421 0.5L2.21053 5.9H9.15789L5.68421 0.5ZM5.68421 2.804L6.90316 4.7H4.45895L5.68421 2.804ZM9.15789 7.1C7.58526 7.1 6.31579 8.306 6.31579 9.8C6.31579 11.294 7.58526 12.5 9.15789 12.5C10.7305 12.5 12 11.294 12 9.8C12 8.306 10.7305 7.1 9.15789 7.1ZM9.15789 11.3C8.28632 11.3 7.57895 10.628 7.57895 9.8C7.57895 8.972 8.28632 8.3 9.15789 8.3C10.0295 8.3 10.7368 8.972 10.7368 9.8C10.7368 10.628 10.0295 11.3 9.15789 11.3ZM0 12.2H5.05263V7.4H0V12.2ZM1.26316 8.6H3.78947V11H1.26316V8.6Z" fill="#495570"/>
</svg>
