<svg width="12" height="13" viewBox="0 0 12 13" fill="none" xmlns="http://www.w3.org/2000/svg">
<path d="M5.4 10.1H6.6V8.9H5.4V10.1ZM6 0.5C2.688 0.5 0 3.188 0 6.5C0 9.812 2.688 12.5 6 12.5C9.312 12.5 12 9.812 12 6.5C12 3.188 9.312 0.5 6 0.5ZM6 11.3C3.354 11.3 1.2 9.146 1.2 6.5C1.2 3.854 3.354 1.7 6 1.7C8.646 1.7 10.8 3.854 10.8 6.5C10.8 9.146 8.646 11.3 6 11.3ZM6 2.9C4.674 2.9 3.6 3.974 3.6 5.3H4.8C4.8 4.64 5.34 4.1 6 4.1C6.66 4.1 7.2 4.64 7.2 5.3C7.2 6.5 5.4 6.35 5.4 8.3H6.6C6.6 6.95 8.4 6.8 8.4 5.3C8.4 3.974 7.326 2.9 6 2.9Z" fill="#495570"/>
</svg>
